# Blender v2.79 (sub 0) OBJ File: ''
# www.blender.org
mtllib trzymacz_okno.mtl
o trzymacz_okno
v 33.000000 12.000000 -84.000008
v 33.000000 0.000000 -84.000008
v 30.000000 12.000000 -84.000008
v 30.000000 0.000000 -84.000008
v 33.000000 12.000000 -46.820923
v 30.000000 12.000000 -50.000004
v 3.000000 12.000000 -84.000008
v 0.000000 12.000000 -84.000008
v 3.000000 12.000000 -50.000004
v 0.000000 12.000000 -46.871792
v 1.400453 12.000000 -45.001976
v 14.848763 12.000000 -17.730728
v 15.357148 12.000000 -18.005852
v 9.263082 12.000000 -24.800648
v 31.616882 12.000000 -44.962696
v 30.470173 12.000000 -42.949966
v 17.622280 12.000000 -18.193546
v 18.169016 12.000000 -18.005852
v 24.263083 12.000000 -24.800648
v 28.530731 12.000000 -33.977272
v 28.599941 12.000000 -36.292706
v 2.560853 12.000000 -42.974422
v 3.463659 12.000000 -40.819794
v 4.095220 12.000000 -38.570656
v 4.445990 12.000000 -36.261013
v 14.392596 12.000000 -17.375677
v 15.903883 12.000000 -18.193546
v 16.474054 12.000000 -18.288691
v 17.052111 12.000000 -18.288691
v 13.310818 12.000000 -15.376728
v 13.452722 12.000000 -15.937094
v 19.525074 12.000000 -16.950392
v 19.841240 12.000000 -16.466461
v 28.950411 12.000000 -38.582512
v 29.576923 12.000000 -40.812649
v 4.510666 12.000000 -33.925781
v 4.288270 12.000000 -31.600264
v 3.782164 12.000000 -29.319618
v 6.263082 12.000000 -24.800648
v 3.000000 12.000000 -27.118322
v 6.263082 12.000000 -4.800648
v 3.000000 12.000000 0.000000
v 27.263083 12.000000 -4.800648
v 30.000000 12.000000 0.000000
v 27.263083 12.000000 -24.800648
v 30.000000 12.000000 -27.220194
v 29.236004 12.000000 -29.407047
v 28.743807 12.000000 -31.670622
v 13.263083 12.000000 -14.800646
v 9.263082 12.000000 -7.800646
v 13.263083 12.000000 -7.800646
v 13.684924 12.000000 -16.466461
v 14.001090 12.000000 -16.950392
v 18.677401 12.000000 -17.730728
v 19.133568 12.000000 -17.375677
v 20.073442 12.000000 -15.937094
v 20.215347 12.000000 -15.376728
v 24.263083 12.000000 -7.800646
v 20.263081 12.000000 -14.800646
v 20.263081 12.000000 -7.800646
v 0.000000 0.000000 -84.000008
v 3.000000 0.000000 -84.000008
v 0.000000 0.000000 -46.871792
v 3.000000 0.000000 -50.000004
v 1.400453 0.000000 -45.001976
v 24.263083 0.000000 -24.800648
v 30.000000 0.000000 -50.000004
v 33.000000 0.000000 -46.820923
v 31.616882 0.000000 -44.962696
v 16.474054 0.000000 -18.288691
v 9.263082 0.000000 -24.800648
v 17.052111 0.000000 -18.288691
v 17.622280 0.000000 -18.193546
v 30.470173 0.000000 -42.949966
v 29.576923 0.000000 -40.812649
v 28.950411 0.000000 -38.582512
v 28.599941 0.000000 -36.292706
v 20.215347 0.000000 -15.376728
v 20.073442 0.000000 -15.937094
v 4.288270 0.000000 -31.600264
v 3.782164 0.000000 -29.319618
v 3.000000 0.000000 -27.118322
v 6.263082 0.000000 -24.800648
v 3.000000 0.000000 0.000000
v 6.263082 0.000000 -4.800648
v 30.000000 0.000000 0.000000
v 27.263083 0.000000 -4.800648
v 30.000000 0.000000 -27.220194
v 27.263083 0.000000 -24.800648
v 29.236004 0.000000 -29.407047
v 28.743807 0.000000 -31.670622
v 28.530731 0.000000 -33.977272
v 19.841240 0.000000 -16.466461
v 19.525074 0.000000 -16.950392
v 19.133568 0.000000 -17.375677
v 18.677401 0.000000 -17.730728
v 18.169016 0.000000 -18.005852
v 15.903883 0.000000 -18.193546
v 15.357148 0.000000 -18.005852
v 14.848763 0.000000 -17.730728
v 4.510666 0.000000 -33.925781
v 4.445990 0.000000 -36.261013
v 4.095220 0.000000 -38.570656
v 14.392596 0.000000 -17.375677
v 14.001090 0.000000 -16.950392
v 13.684924 0.000000 -16.466461
v 3.463659 0.000000 -40.819794
v 2.560853 0.000000 -42.974422
v 20.263081 0.000000 -14.800646
v 24.263083 0.000000 -7.800646
v 20.263081 0.000000 -7.800646
v 13.452722 0.000000 -15.937094
v 13.310818 0.000000 -15.376728
v 9.263082 0.000000 -7.800646
v 13.263083 0.000000 -14.800646
v 13.263083 0.000000 -7.800646
vn 0.0000 0.0000 -1.0000
vn 0.0000 1.0000 0.0000
vn 0.0000 -1.0000 0.0000
vn 0.0000 0.0000 1.0000
vn -1.0000 0.0000 0.0000
vn 1.0000 0.0000 0.0000
vn -0.9966 0.0000 0.0826
vn -0.9694 0.0000 0.2455
vn -0.9158 0.0000 0.4017
vn -0.8372 0.0000 0.5469
vn -0.7357 0.0000 0.6773
vn -0.6142 0.0000 0.7891
vn -0.4759 0.0000 0.8795
vn -0.3247 0.0000 0.9458
vn -0.1646 0.0000 0.9864
vn 0.1646 0.0000 0.9864
vn 0.3247 0.0000 0.9458
vn 0.4759 0.0000 0.8795
vn 0.6142 0.0000 0.7891
vn 0.7357 0.0000 0.6773
vn 0.8372 0.0000 0.5469
vn 0.9158 0.0000 0.4017
vn 0.9694 0.0000 0.2455
vn 0.9966 0.0000 0.0826
vn -0.8004 0.0000 0.5995
vn -0.8679 0.0000 0.4967
vn -0.9223 0.0000 0.3865
vn -0.9628 0.0000 0.2703
vn -0.9887 0.0000 0.1501
vn -0.9887 0.0000 0.1502
vn -0.9996 0.0000 0.0277
vn -0.9955 0.0000 -0.0952
vn -0.9763 0.0000 -0.2166
vn -0.9423 0.0000 -0.3348
vn 0.9440 0.0000 -0.3298
vn 0.9772 0.0000 -0.2125
vn 0.9958 0.0000 -0.0920
vn 0.9996 0.0000 0.0299
vn 0.9885 0.0000 0.1513
vn 0.9627 0.0000 0.2705
vn 0.9227 0.0000 0.3856
vn 0.8689 0.0000 0.4950
vn 0.8022 0.0000 0.5971
usemtl None
s off
f 1//1 2//1 3//1
f 3//1 2//1 4//1
f 1//2 3//2 5//2
f 5//2 3//2 6//2
f 7//2 8//2 9//2
f 9//2 8//2 10//2
f 9//2 10//2 6//2
f 6//2 10//2 11//2
f 12//2 13//2 14//2
f 5//2 14//2 15//2
f 15//2 14//2 16//2
f 17//2 18//2 19//2
f 20//2 21//2 14//2
f 11//2 22//2 6//2
f 6//2 22//2 23//2
f 6//2 23//2 5//2
f 5//2 23//2 24//2
f 5//2 24//2 25//2
f 12//2 14//2 26//2
f 13//2 27//2 14//2
f 14//2 27//2 28//2
f 14//2 28//2 19//2
f 19//2 28//2 29//2
f 19//2 29//2 17//2
f 14//2 30//2 31//2
f 19//2 32//2 33//2
f 21//2 34//2 14//2
f 14//2 34//2 35//2
f 14//2 35//2 16//2
f 25//2 36//2 5//2
f 5//2 36//2 37//2
f 5//2 37//2 14//2
f 14//2 37//2 38//2
f 14//2 38//2 39//2
f 39//2 38//2 40//2
f 39//2 40//2 41//2
f 41//2 40//2 42//2
f 41//2 42//2 43//2
f 43//2 42//2 44//2
f 43//2 44//2 45//2
f 45//2 44//2 46//2
f 45//2 46//2 19//2
f 19//2 46//2 47//2
f 19//2 47//2 14//2
f 14//2 47//2 48//2
f 14//2 48//2 20//2
f 30//2 14//2 49//2
f 49//2 14//2 50//2
f 49//2 50//2 51//2
f 31//2 52//2 14//2
f 14//2 52//2 53//2
f 14//2 53//2 26//2
f 18//2 54//2 19//2
f 19//2 54//2 55//2
f 19//2 55//2 32//2
f 33//2 56//2 19//2
f 19//2 56//2 57//2
f 19//2 57//2 58//2
f 58//2 57//2 59//2
f 58//2 59//2 60//2
f 61//3 62//3 63//3
f 63//3 62//3 64//3
f 65//3 63//3 66//3
f 4//3 2//3 67//3
f 67//3 2//3 68//3
f 67//3 68//3 64//3
f 64//3 68//3 69//3
f 70//3 71//3 72//3
f 72//3 71//3 66//3
f 72//3 66//3 73//3
f 69//3 74//3 64//3
f 64//3 74//3 75//3
f 64//3 75//3 63//3
f 63//3 75//3 76//3
f 63//3 76//3 77//3
f 78//3 79//3 66//3
f 80//3 66//3 81//3
f 81//3 66//3 71//3
f 81//3 71//3 82//3
f 82//3 71//3 83//3
f 82//3 83//3 84//3
f 84//3 83//3 85//3
f 84//3 85//3 86//3
f 86//3 85//3 87//3
f 86//3 87//3 88//3
f 88//3 87//3 89//3
f 88//3 89//3 90//3
f 90//3 89//3 66//3
f 90//3 66//3 91//3
f 91//3 66//3 63//3
f 91//3 63//3 92//3
f 92//3 63//3 77//3
f 79//3 93//3 66//3
f 66//3 93//3 94//3
f 66//3 94//3 95//3
f 95//3 96//3 66//3
f 66//3 96//3 97//3
f 66//3 97//3 73//3
f 70//3 98//3 71//3
f 71//3 98//3 99//3
f 71//3 99//3 100//3
f 80//3 101//3 66//3
f 66//3 101//3 102//3
f 66//3 102//3 103//3
f 100//3 104//3 71//3
f 71//3 104//3 105//3
f 71//3 105//3 106//3
f 103//3 107//3 66//3
f 66//3 107//3 108//3
f 66//3 108//3 65//3
f 78//3 66//3 109//3
f 109//3 66//3 110//3
f 109//3 110//3 111//3
f 106//3 112//3 71//3
f 71//3 112//3 113//3
f 71//3 113//3 114//3
f 114//3 113//3 115//3
f 114//3 115//3 116//3
f 110//4 58//4 111//4
f 111//4 58//4 60//4
f 82//5 84//5 40//5
f 40//5 84//5 42//5
f 44//4 42//4 86//4
f 86//4 42//4 84//4
f 46//6 44//6 88//6
f 88//6 44//6 86//6
f 62//1 61//1 7//1
f 7//1 61//1 8//1
f 83//4 71//4 39//4
f 39//4 71//4 14//4
f 71//5 114//5 14//5
f 14//5 114//5 50//5
f 51//4 50//4 116//4
f 116//4 50//4 114//4
f 110//6 66//6 58//6
f 58//6 66//6 19//6
f 66//4 89//4 19//4
f 19//4 89//4 45//4
f 89//5 87//5 45//5
f 45//5 87//5 43//5
f 87//1 85//1 43//1
f 43//1 85//1 41//1
f 85//6 83//6 41//6
f 41//6 83//6 39//6
f 109//5 111//5 59//5
f 59//5 111//5 60//5
f 116//6 115//6 51//6
f 51//6 115//6 49//6
f 109//7 59//7 78//7
f 78//7 59//7 57//7
f 78//8 57//8 79//8
f 79//8 57//8 56//8
f 79//9 56//9 93//9
f 93//9 56//9 33//9
f 93//10 33//10 94//10
f 94//10 33//10 32//10
f 94//11 32//11 95//11
f 95//11 32//11 55//11
f 95//12 55//12 96//12
f 96//12 55//12 54//12
f 96//13 54//13 97//13
f 97//13 54//13 18//13
f 97//14 18//14 73//14
f 73//14 18//14 17//14
f 73//15 17//15 72//15
f 72//15 17//15 29//15
f 72//4 29//4 70//4
f 70//4 29//4 28//4
f 70//16 28//16 98//16
f 98//16 28//16 27//16
f 98//17 27//17 99//17
f 99//17 27//17 13//17
f 99//18 13//18 100//18
f 100//18 13//18 12//18
f 100//19 12//19 104//19
f 104//19 12//19 26//19
f 104//20 26//20 105//20
f 105//20 26//20 53//20
f 105//21 53//21 106//21
f 106//21 53//21 52//21
f 106//22 52//22 112//22
f 112//22 52//22 31//22
f 112//23 31//23 113//23
f 113//23 31//23 30//23
f 113//24 30//24 115//24
f 115//24 30//24 49//24
f 2//6 1//6 68//6
f 68//6 1//6 5//6
f 8//5 61//5 10//5
f 10//5 61//5 63//5
f 10//25 63//25 11//25
f 11//25 63//25 65//25
f 11//26 65//26 22//26
f 22//26 65//26 108//26
f 22//27 108//27 23//27
f 23//27 108//27 107//27
f 23//28 107//28 24//28
f 24//28 107//28 103//28
f 24//29 103//29 25//29
f 25//30 103//30 102//30
f 25//31 102//31 36//31
f 36//31 102//31 101//31
f 36//32 101//32 37//32
f 37//32 101//32 80//32
f 37//33 80//33 38//33
f 38//33 80//33 81//33
f 38//34 81//34 40//34
f 40//34 81//34 82//34
f 46//35 88//35 47//35
f 47//35 88//35 90//35
f 47//36 90//36 48//36
f 48//36 90//36 91//36
f 48//37 91//37 20//37
f 20//37 91//37 92//37
f 20//38 92//38 21//38
f 21//38 92//38 77//38
f 21//39 77//39 34//39
f 34//39 77//39 76//39
f 34//40 76//40 35//40
f 35//40 76//40 75//40
f 35//41 75//41 16//41
f 16//41 75//41 74//41
f 16//42 74//42 15//42
f 15//42 74//42 69//42
f 15//43 69//43 5//43
f 5//43 69//43 68//43
f 67//1 64//1 6//1
f 6//1 64//1 9//1
f 64//6 62//6 9//6
f 9//6 62//6 7//6
f 4//5 67//5 3//5
f 3//5 67//5 6//5
